<?xml version="1.0" encoding="UTF-8"?>
<svg version="1.1" xmlns="http://www.w3.org/2000/svg" width="41" height="50">
<path d="M0 0 C0.66 -0.33 1.32 -0.66 2 -1 C7.29585036 -1.5202043 11.59792484 -1.87973343 16.1875 1 C16.785625 1.66 17.38375 2.32 18 3 C16.79618552 5.49361571 15.54571278 7.68143083 14 10 C13.41585298 13.37306618 13.41585298 13.37306618 14 17 C15.2684375 18.5159375 15.2684375 18.5159375 16.5625 20.0625 C19 23 19 23 19.125 25.9375 C17.54750744 30.2317853 15.23080031 34.88459984 11 37 C6.67741533 37.13943822 3.17422827 37.04355707 -1 36 C-2.33599921 36.32248257 -3.66893378 36.65772583 -5 37 C-9.13958224 37.45159079 -11.19060582 37.5781387 -14.625 35.125 C-20.70090901 27.13038288 -22.88554627 20.63081489 -22.56640625 10.44921875 C-21.77384574 5.62279855 -19.91835102 2.8626295 -16 0 C-11.26679763 -2.36660119 -4.98584354 -1.05760317 0 0 Z " fill="#EEEEEE" transform="translate(22,13)"/>
<path d="M0 0 C0.721875 0.103125 1.44375 0.20625 2.1875 0.3125 C1.90171491 4.02770613 1.6847221 6.61270593 -0.5 9.6875 C-3.27828975 11.63981171 -5.46127744 12.0078434 -8.8125 12.3125 C-8.56308473 8.07244038 -8.17695139 5.78831154 -5.5625 2.375 C-2.8125 0.3125 -2.8125 0.3125 0 0 Z " fill="#EEEEEE" transform="translate(28.8125,-0.3125)"/>
</svg>
